<?xml version="1.0" encoding="utf-8"?>
<!-- Generator: Adobe Illustrator 16.0.0, SVG Export Plug-In . SVG Version: 6.00 Build 0)  -->
<!DOCTYPE svg PUBLIC "-//W3C//DTD SVG 1.1//EN" "http://www.w3.org/Graphics/SVG/1.1/DTD/svg11.dtd">
<svg version="1.1" id="Layer_1" xmlns="http://www.w3.org/2000/svg" xmlns:xlink="http://www.w3.org/1999/xlink" x="0px" y="0px"
	 width="64px" height="64px" viewBox="0 0 64 64" enable-background="new 0 0 64 64" xml:space="preserve">
<g>
	<path fill="#E39B25" d="M13.28,37.012c-0.299,8.072,0.797,14.649,2.691,21.027c0.498,1.694,1.096,3.188,2.292,4.484
		c2.193,2.393,4.784,1.794,5.681-1.196c0.897-2.989,0.897-5.979,0.598-9.068c-0.498-4.484-0.997-9.069,0.997-13.354
		c1.295-2.691,3.488-3.886,6.378-3.886c2.791,0.099,5.082,1.395,6.278,3.986c0.698,1.594,1.196,3.188,1.097,4.883
		c-0.1,3.488-0.1,6.976-0.398,10.464c-0.199,2.292,0.099,4.584,0.598,6.677c0.697,3.09,3.389,3.688,5.681,1.495
		c0.997-0.996,1.495-2.192,1.993-3.488c1.595-4.086,2.691-8.372,2.691-12.557c-0.1-10.065,1.495-19.632,5.382-29
		c1.893-4.684,1.394-10.364-3.189-14.45c-4.285-3.787-8.969-2.691-13.554-0.997c-4.585,1.694-9.069,1.793-13.653,0
		c-1.295-0.499-2.591-0.797-3.986-1.096C13.779-0.361,8.397,3.725,7.7,10.701c-0.498,4.584,0.697,8.77,2.591,12.856
		C12.583,28.241,13.878,33.124,13.28,37.012z"/>
</g>
</svg>
