<?xml version="1.0" encoding="utf-8"?>
<!-- Generator: Adobe Illustrator 16.0.0, SVG Export Plug-In . SVG Version: 6.00 Build 0)  -->
<!DOCTYPE svg PUBLIC "-//W3C//DTD SVG 1.1//EN" "http://www.w3.org/Graphics/SVG/1.1/DTD/svg11.dtd">
<svg version="1.1" id="Layer_1" xmlns="http://www.w3.org/2000/svg" xmlns:xlink="http://www.w3.org/1999/xlink" x="0px" y="0px"
	 width="64px" height="64px" viewBox="0 0 64 64" enable-background="new 0 0 64 64" xml:space="preserve">
<g>
	<path fill="#E39B25" d="M31.7,64c-8.3,0-16.6,0-25,0c-1.6,0-2.6-1-2.6-2.6c0-11.601,0-23.301,0-34.9c0-2.8,0-5.6,0-8.5
		c0-1.9,0.9-2.8,2.8-2.8c15.5,0,31.1,0,46.6,0c1.1,0,2.2,0,3.3,0c1.5,0,2.5,1,2.5,2.5c0,6.1,0,12.2,0,18.399
		c0,7.5,0,15.101,0,22.601c0,0.899,0,1.899,0,2.8c0,1.5-1,2.5-2.5,2.5C48.5,64,40.1,64,31.7,64z M31.7,53.4c7.2,0,14.399,0,21.5,0
		C54.1,53.4,54.6,53,54.6,52c0-3.2,0-6.3,0-9.5c0-7,0-14,0-21c0-1.2-0.399-1.6-1.6-1.6c-6.3,0-12.6,0-19,0c-7.9,0-15.9,0-23.8,0
		c-1.1,0-1.5,0.4-1.5,1.5c0,5.6,0,11.2,0,16.8c0,1.8,0,3.6,0,5.399c0,2.801,0,5.601,0,8.4c0,0.4,0.1,0.8,0.4,1.1
		c0.3,0.301,0.6,0.2,1,0.2C17.4,53.4,24.6,53.4,31.7,53.4z M30.4,55.6L30.4,55.6c-1.5,0-3,0-4.6,0C24.6,55.6,24,56.2,24,57.4
		c0,1.199,0,2.5,0,3.699c0,1,0.6,1.7,1.7,1.7c3.1,0,6.2,0,9.399,0c1.101,0,1.7-0.6,1.7-1.7c0-1.199,0-2.5,0-3.699
		c0-1.101-0.6-1.7-1.7-1.7C33.4,55.6,31.9,55.6,30.4,55.6z M42.8,56.7c-1.1,0-2.2,0-3.3,0c-0.7,0-1,0.3-1,1c0,1,0,1.899,0,2.899
		c0,0.7,0.3,1,1,1c2.2,0,4.3,0,6.5,0c0.7,0,1-0.399,1-1c0-1,0-1.899,0-2.899c0-0.7-0.4-1-1.1-1C44.9,56.7,43.8,56.7,42.8,56.7z
		 M18.8,59.1c0-0.699-0.5-1.199-1.2-1.199c-0.6,0-1.2,0.6-1.2,1.199c0,0.7,0.6,1.2,1.2,1.2C18.3,60.3,18.8,59.8,18.8,59.1z
		 M21.9,59.1c0-0.699-0.6-1.199-1.2-1.199c-0.7,0-1.2,0.6-1.2,1.199c0,0.601,0.5,1.2,1.2,1.2C21.3,60.4,21.9,59.8,21.9,59.1z"/>
	<path fill="#E39B25" d="M11.4,13.3c13.5,0,27,0,40.4,0c0-0.2-0.1-0.3-0.2-0.3c-1.199-1.2-2.399-2.4-3.5-3.5
		c-0.199-0.2-0.5-0.3-0.8-0.3c-2.8,0-5.7,0-8.5,0c-0.5,0-0.5,0-0.399-0.5c0.3-1.1,0.899-2.1,1.6-3c0.2-0.2,0.4-0.3,0.7-0.3
		c2.3,0,4.7,0,7,0c1.2,0,2.3,0.5,3.1,1.4c1.7,1.7,3.3,3.4,5,5c0.8,0.8,1.7,1.6,2.4,2.5c0.399,0.5,0.7,1,0.8,1.6
		c-0.1,0-0.2,0-0.3-0.1c-0.601-0.5-1.3-0.8-2-0.8c-9.4,0-18.9,0-28.3,0c-7.1,0-14.2,0-21.2,0c-1,0-1.9,0.1-2.7,0.9H4.4
		c0.2-0.8,0.6-1.5,1.2-2c1.9-2,3.9-3.9,5.8-5.9c0.7-0.7,1.3-1.4,2-1.9c0.7-0.5,1.5-0.7,2.3-0.7c7,0,13.9,0,20.899,0
		c0.5,0,0.5,0,0.301,0.5C36.4,6.8,36.1,7.8,35.8,8.8c-0.1,0.4-0.3,0.5-0.7,0.5c-1.8,0-3.6,0-5.5,0c-4.5,0-9.1,0-13.6,0
		c-0.4,0-0.7,0.1-0.9,0.4c-1.1,1.2-2.2,2.3-3.4,3.5C11.6,13,11.6,13.1,11.4,13.3z"/>
	<path fill="#E39B25" d="M35.7,11.7c0.1-2.4,0.6-4.7,2-6.8c1.3-1.9,3.1-3,5.2-3.6c2.8-0.8,5.399-0.5,7.8,1.1c2.5,1.6,4,3.8,4.2,6.8
		c0,0.1,0,0.3,0,0.4C54.9,9.8,55,10,54.8,10c-0.2,0.1-0.3-0.1-0.399-0.2C54.3,9.6,54.1,9.5,54,9.3C53.3,8.7,52.7,8,52.2,7
		c-1.2-2.7-4.9-4.9-8.8-3.8C40.1,4.2,38.3,6.5,37.8,9.8c-0.2,0.9-0.2,1.8-0.2,2.8c0,0.3-0.1,0.5-0.5,0.5c-0.399,0-0.699,0-1.1,0
		c-0.3,0-0.5-0.1-0.4-0.5C35.7,12.3,35.7,12,35.7,11.7z"/>
	<path fill="none" d="M31.7,53.4c-7.2,0-14.3,0-21.5,0c-0.4,0-0.7,0-1-0.2C8.9,52.9,8.8,52.6,8.8,52.1c0-2.8,0-5.6,0-8.399
		c0-1.8,0-3.601,0-5.4c0-5.6,0-11.2,0-16.8c0-1.1,0.4-1.5,1.5-1.5c7.9,0,15.9,0,23.8,0c6.301,0,12.601,0,19,0
		c1.2,0,1.601,0.4,1.601,1.6c0,7,0,14,0,21c0,3.2,0,6.301,0,9.5c0,0.9-0.4,1.4-1.4,1.4C46.1,53.4,38.9,53.4,31.7,53.4z M54.3,49.3
		c0-0.1,0-0.2,0-0.2c0-1.699,0-3.399,0-5.199c0-0.2-0.1-0.4-0.2-0.601C53,41.1,51.9,39,50.8,36.8c-0.2-0.3-0.2-0.6-0.2-0.899
		c0-3.101,0-6.3,0-9.4c0-0.1,0-0.3,0-0.4c0-0.2-0.1-0.3-0.3-0.2c-0.899,0.3-1.8,0.2-2.7,0.3c-0.699,0-0.699,0-0.699,0.7
		c0,3,0,6,0,9.1c0,0.4-0.101,0.5-0.5,0.5c-0.801,0-1.7,0-2.5,0c-4.101,0-8.2,0-12.4,0c-4.9,0-9.8,0-14.8,0c-0.6,0-0.6,0-0.6-0.6
		c0-3,0-6,0-9c0-0.7,0-0.7-0.7-0.7c-0.8,0-1.6,0-2.4-0.4c-0.5-0.3-0.5-0.2-0.5,0.3c0,3.3,0,6.5,0,9.8c0,0.3-0.1,0.6-0.2,0.899
		c-1.1,2.2-2.2,4.3-3.2,6.5c-0.1,0.2-0.2,0.5-0.2,0.8c0,1.601,0,3.101,0,4.7c0,0.101,0,0.3,0.1,0.4c0.1,0,0.1-0.101,0.1-0.101
		c1.5-2.899,2.9-5.8,4.4-8.699c0.4-0.9,1.1-1.301,2.1-1.301c4.7,0,9.4,0,14.1,0c6,0,11.899,0,17.899,0c0.9,0,1.601,0.301,2,1.2
		C51.2,43.1,52.7,46.2,54.3,49.3z M31.7,50.7c3.6,0,7.3,0,10.899,0c3.301,0,6.601,0,9.9,0c1.3,0,1.8-0.9,1.2-2
		c-1.4-2.8-2.9-5.601-4.3-8.5C49,39.4,48.5,39.1,47.6,39.1c-10.6,0-21.1,0-31.7,0c-1,0-1.7,0.301-2.1,1.301
		C13,42.2,12,43.9,11.2,45.6c-0.5,1-1.1,2.101-1.6,3.101C9.2,49.6,9.7,50.5,10.7,50.6c0.2,0,0.3,0,0.5,0
		C18,50.7,24.9,50.7,31.7,50.7z M34.3,23.3c0.101-0.1,0.101-0.2,0.2-0.2c0.7-0.7,1.3-1.4,1.8-2.2c0.101-0.1,0.3-0.3,0.2-0.5
		c-0.1-0.1-0.3-0.1-0.4-0.1c-0.399,0-0.899,0-1.3,0c-0.3,0-0.5,0.1-0.7,0.4c-0.8,1-1.7,1.8-2.7,2.4c-0.2,0.1-0.5,0.2-0.7,0.2
		c-5.2,0-10.4,0-15.5,0c-0.9,0-1.5-0.6-1.5-1.5c0-0.4,0-0.8,0-1.2c0-0.2-0.1-0.3-0.3-0.3c-0.7,0-1.3,0-2,0c-0.2,0-0.3,0.1-0.3,0.3
		c0,0.6-0.1,1.2,0,1.9c0.4,2.1,2,3.4,4.1,3.4c5.1,0,10.3,0,15.4,0c6.1,0,12.2,0,18.4,0c1.6,0,2.8-0.8,3.6-2.2c0.5-1,0.4-2.1,0.4-3.1
		c0-0.2-0.1-0.2-0.3-0.2c-0.601,0-1.3,0-1.9,0c-0.3,0-0.399,0.1-0.399,0.4c0,0.3,0,0.5,0,0.8c0.1,1.4-0.801,1.9-1.801,1.9
		c-4.5,0-8.899,0-13.399,0C34.9,23.3,34.7,23.3,34.3,23.3z M9.1,49.8c0,0.8,0,1.5,0,2.2c0,0.8,0.3,1.1,1.1,1.1c0.1,0,0.2,0,0.3,0
		c14.2,0,28.3,0,42.5,0c0.1,0,0.2,0,0.3,0c0.601,0,1-0.3,1-1c0-0.699,0-1.5,0-2.199c0-0.101,0-0.2-0.1-0.301c-0.3,1-1,1.301-2,1.301
		c-11.4,0-22.7,0-34.1,0c-2.5,0-4.9,0-7.4,0C10,50.9,9.5,50.6,9.2,50C9.3,50,9.3,49.9,9.1,49.8z M31.3,30.7c1.8,0,3.601,0,5.4,0
		c1.399,0,2.399-0.7,2.6-2c0.101-0.8,0-1.5-0.3-2.2c-0.1-0.3-0.3-0.4-0.6-0.4c-0.7,0-1.4,0-2.101,0c-3.8,0-7.6,0-11.4,0
		c-1.3,0-1.3,0-1.6,1.3c-0.2,1-0.1,2,0.8,2.7c0.6,0.5,1.2,0.5,1.9,0.5C27.7,30.7,29.5,30.7,31.3,30.7z M31.2,30.9c-1,0-2,0-3,0
		c-0.3,0-0.5,0.1-0.5,0.4c0.1,1.1,0.9,2,2,2c0.9,0,1.9,0,2.8,0c1.1,0,1.9-0.7,2.1-1.9c0-0.4,0-0.5-0.5-0.5
		C33.2,30.9,32.2,30.9,31.2,30.9z M48.6,20.3L48.6,20.3c-0.399,0-0.699,0-1.1,0c-0.3,0-0.4,0.1-0.4,0.4c0,0.6,0,1.3,0,1.9
		c0,0.3,0.101,0.4,0.4,0.4c0.5,0,0.9,0,1.4,0c0.699,0,1.199-0.5,1.3-1.2c0-0.4,0-0.8,0-1.2c0-0.2-0.101-0.4-0.4-0.4
		C49.3,20.3,49,20.3,48.6,20.3z M16.3,21.7L16.3,21.7c0-0.4,0-0.7,0-1.1c0-0.2,0-0.3-0.3-0.3c-0.6,0-1.3,0-1.9,0
		c-0.3,0-0.4,0.1-0.4,0.4c0,0.4,0,0.8,0,1.2c0,0.7,0.5,1.1,1.2,1.2c0.4,0,0.7,0,1.1,0c0.2,0,0.3-0.1,0.3-0.3
		C16.3,22.4,16.3,22,16.3,21.7z M32,34.5c0-1,0-1-1.1-1c-0.1,0-0.2,0-0.3,0s-0.2,0.1-0.2,0.2c0,0.5,0,1,0,1.5
		c0,0.399,0.4,0.6,0.8,0.6c0.4,0,0.7-0.3,0.7-0.7C32,35,32,34.8,32,34.5z"/>
	<path fill="none" d="M30.4,55.6c1.5,0,3,0,4.6,0c1.1,0,1.7,0.601,1.7,1.7c0,1.2,0,2.5,0,3.7c0,1.1-0.601,1.7-1.7,1.7
		c-3.1,0-6.2,0-9.4,0c-1,0-1.7-0.7-1.7-1.7c0-1.2,0-2.5,0-3.7s0.6-1.8,1.8-1.8C27.4,55.6,28.9,55.6,30.4,55.6L30.4,55.6z M30.4,56.1
		L30.4,56.1c-1.7,0-3.4,0-5.2,0c-0.5,0-0.6,0.101-0.6,0.601c0,1.6,0,3.2,0,4.8c0,0.5,0.1,0.6,0.6,0.6c0.6,0,1.2,0,1.7,0
		c2,0,3.9,0,5.9,0c0.9,0,1.8,0,2.7,0c0.6,0,0.7-0.1,0.7-0.699c0-1.5,0-2.9,0-4.4c0-0.9,0-0.9-0.9-0.9C33.6,56.1,32,56.1,30.4,56.1z"
		/>
	<path fill="none" d="M42.8,56.7c1.101,0,2.101,0,3.2,0c0.7,0,1.1,0.3,1.1,1c0,1,0,1.899,0,2.899c0,0.7-0.399,1-1,1
		c-2.199,0-4.3,0-6.5,0c-0.699,0-1-0.399-1-1c0-1,0-1.899,0-2.899c0-0.7,0.301-1,1-1C40.6,56.7,41.7,56.7,42.8,56.7z M42.6,58.1
		c0-0.199,0-0.399,0-0.6c0-0.3-0.1-0.4-0.399-0.4c-0.7,0-1.4,0-2.101,0c-1.199,0-1.3,0.101-1.3,1.301c0,0.699,0,0.699,0.7,0.699
		c0.2,0,0.5,0,0.7,0c0.3,0,0.399-0.1,0.3-0.3c0-0.399,0-0.8,0-1.1c0-0.101-0.1-0.3,0.1-0.3c0.2,0,0.101,0.199,0.2,0.399
		c0,0.2,0,0.5,0,0.7c0,0.7,0,0.7,0.8,0.7C42.6,59.1,42.6,59.1,42.6,58.1z M44.7,58c0-0.2,0-0.4,0-0.6c0-0.301-0.101-0.4-0.4-0.4
		s-0.7,0-1,0S42.9,57.1,42.9,57.4c0,0.3,0,0.6,0,0.8c0,0.8,0,0.8,0.8,0.8C44.8,59,44.7,59.2,44.7,58z M42.9,60.3
		c0,1.101-0.101,1,0.699,1c1.2,0,1,0.2,1-1.1c0-0.9,0.101-0.8-0.8-0.8C42.8,59.4,42.9,59.2,42.9,60.3z M45,58L45,58
		c0,0.2,0,0.4,0,0.6c0,0.301,0,0.4,0.3,0.4c0.4,0,0.7,0,1.101,0c0.199,0,0.3-0.1,0.3-0.3c0-0.4,0-0.8,0-1.2c0-0.2-0.2-0.4-0.4-0.5
		c-0.399-0.1-0.899-0.2-1.2,0C44.8,57.2,45,57.7,45,58L45,58z M42.6,60.3c0-0.1,0-0.2,0-0.3c0-0.7,0.2-0.7-0.699-0.7
		c-1,0-1,0-1,1.101c0,0.899-0.101,0.8,0.8,0.8C42.7,61.2,42.6,61.4,42.6,60.3z M45,60.3c0,0.2,0,0.4,0,0.5c0,0.3,0.1,0.4,0.4,0.4
		c1.199,0,1.3,0,1.3-1.3c0-0.101,0-0.2,0-0.301c0-0.3-0.101-0.399-0.4-0.399c-0.1,0-0.3,0-0.399,0C45,59.4,45,59.4,45,60.3z
		 M40.5,60.3c0-1.1,0.1-0.899-0.9-0.899c-0.1,0-0.3,0-0.399,0c-0.2,0-0.3,0.1-0.3,0.3c0,0.3,0,0.7,0,1c0,0.399,0.3,0.6,0.6,0.6
		C40.7,61.3,40.5,61.4,40.5,60.3z"/>
	<path fill="none" d="M18.8,59.1c0,0.601-0.5,1.2-1.2,1.2c-0.7,0-1.3-0.6-1.2-1.2c0-0.6,0.6-1.199,1.2-1.199
		C18.3,57.9,18.8,58.4,18.8,59.1z M18.5,59.1c0-0.5-0.3-0.899-0.9-1c-0.5,0-0.9,0.4-1,0.9c0,0.5,0.4,0.9,0.9,1
		C18.1,60,18.5,59.6,18.5,59.1z"/>
	<path fill="none" d="M21.9,59.1c0,0.7-0.6,1.2-1.3,1.2c-0.6,0-1.2-0.6-1.2-1.2c0-0.699,0.6-1.3,1.2-1.199
		C21.3,57.9,21.9,58.5,21.9,59.1z M19.8,59.1c0,0.5,0.4,0.9,0.9,0.9s0.9-0.4,0.9-0.9S21.2,58.2,20.7,58.2S19.8,58.6,19.8,59.1z"/>
	<path fill="#E39B25" d="M54.3,49.3c-1.6-3.1-3.1-6.1-4.6-9.2c-0.4-0.8-1.101-1.199-2-1.199c-6,0-11.9,0-17.9,0c-4.7,0-9.4,0-14.1,0
		c-1,0-1.6,0.399-2.1,1.3c-1.4,2.899-2.9,5.8-4.4,8.7c0,0.1,0,0.1-0.1,0.1C9,48.9,9,48.8,9,48.6C9,47,9,45.5,9,43.9
		C9,43.6,9.1,43.4,9.2,43.1c1.1-2.199,2.2-4.3,3.2-6.5c0.1-0.3,0.2-0.6,0.2-0.899c0-3.3,0-6.5,0-9.8c0-0.6,0-0.6,0.5-0.3
		c0.8,0.4,1.6,0.4,2.4,0.4c0.7,0,0.7,0,0.7,0.7c0,3,0,6,0,9c0,0.6,0,0.6,0.6,0.6c4.9,0,9.8,0,14.8,0c4.1,0,8.2,0,12.4,0
		c0.8,0,1.7,0,2.5,0c0.4,0,0.5-0.1,0.5-0.5c0-3,0-6,0-9.1c0-0.7,0-0.7,0.7-0.7c0.899,0,1.8,0.1,2.7-0.3c0.199-0.1,0.3,0,0.3,0.2
		c0,0.1,0,0.3,0,0.4c0,3.1,0,6.3,0,9.4c0,0.3,0.1,0.6,0.2,0.899C52,38.7,53.1,40.9,54.2,43.1c0.1,0.2,0.2,0.4,0.2,0.601
		c0,1.7,0,3.399,0,5.2C54.3,49.1,54.3,49.1,54.3,49.3z"/>
	<path fill="#E39B25" d="M31.591,50.515c-6.69,0-13.479,0-20.169,0c-0.197,0-0.295,0-0.492,0c-0.984-0.1-1.476-0.886-1.083-1.87
		c0.492-1.082,0.984-2.065,1.574-3.05c0.886-1.672,1.771-3.443,2.558-5.116c0.394-0.886,1.083-1.278,2.066-1.278
		c10.429,0,20.759,0,31.188,0c0.787,0,1.378,0.295,1.771,1.082c1.377,2.754,2.853,5.51,4.23,8.362c0.59,1.083,0,1.968-1.181,1.968
		c-3.247,0-6.493,0-9.74,0C38.772,50.515,35.231,50.515,31.591,50.515z M31.591,48.939c5.706,0,11.314,0,17.021,0
		c1.573,0,2.361-1.377,1.672-2.755c-0.688-1.376-1.476-2.853-2.164-4.229c-0.395-0.787-0.984-1.181-1.87-1.181
		c-9.739,0-19.479,0-29.219,0c-0.984,0-1.574,0.394-2.066,1.278c-0.688,1.378-1.377,2.854-2.164,4.231
		c-0.492,0.983-0.099,1.968,0.787,2.459c0.393,0.196,0.688,0.196,1.082,0.196C20.375,48.939,25.983,48.939,31.591,48.939z"/>
	<path fill="#E39B25" d="M34.3,23.3c0.3,0,0.601,0,0.8,0c4.5,0,8.9,0,13.4,0c1.1,0,2-0.5,1.8-1.9c0-0.3,0-0.5,0-0.8
		c0-0.2,0.101-0.4,0.4-0.4c0.6,0,1.3,0,1.899,0c0.2,0,0.301,0,0.301,0.2c0,1.1,0.1,2.1-0.4,3.1c-0.8,1.4-2,2.2-3.6,2.2
		c-6.101,0-12.2,0-18.4,0c-5.1,0-10.3,0-15.4,0c-2.1,0-3.7-1.3-4.1-3.4c-0.1-0.6,0-1.2,0-1.9c0-0.2,0.1-0.3,0.3-0.3c0.7,0,1.3,0,2,0
		c0.2,0,0.3,0.1,0.3,0.3c0,0.4,0,0.8,0,1.2c0,0.9,0.6,1.5,1.5,1.5c5.2,0,10.4,0,15.5,0c0.3,0,0.5-0.1,0.7-0.2c1-0.7,1.9-1.4,2.7-2.4
		c0.2-0.3,0.4-0.4,0.7-0.4c0.399,0,0.899,0,1.3,0c0.1,0,0.4-0.1,0.4,0.1c0.1,0.2-0.101,0.3-0.2,0.5c-0.5,0.8-1.101,1.6-1.8,2.2
		C34.5,23.1,34.4,23.2,34.3,23.3z"/>
	<path fill="#E39B25" d="M9.1,49.8c0.2,0,0.2,0.101,0.2,0.2c0.3,0.6,0.8,0.9,1.5,0.9c2.5,0,4.9,0,7.4,0c11.4,0,22.7,0,34.1,0
		c1,0,1.7-0.301,2-1.301C54.4,49.7,54.4,49.8,54.4,49.9c0,0.699,0,1.5,0,2.199c0,0.601-0.301,1-1,1c-0.101,0-0.2,0-0.301,0
		c-14.199,0-28.3,0-42.5,0c-0.1,0-0.2,0-0.3,0c-0.8,0-1.1-0.3-1.1-1.1C9.1,51.3,9.1,50.6,9.1,49.8z"/>
	<path fill="#E39B25" d="M31.3,30.7c-1.8,0-3.6,0-5.3,0c-0.7,0-1.3-0.1-1.9-0.5c-0.9-0.7-1-1.7-0.8-2.7c0.3-1.3,0.3-1.3,1.6-1.3
		c3.8,0,7.6,0,11.4,0c0.7,0,1.4,0,2.101,0c0.3,0,0.5,0.1,0.6,0.4c0.3,0.7,0.5,1.4,0.3,2.2c-0.2,1.2-1.2,2-2.6,2
		C34.8,30.7,33,30.7,31.3,30.7z"/>
	<path fill="#E39B25" d="M31.2,30.9c1,0,2,0,3,0c0.399,0,0.5,0.1,0.5,0.5c-0.101,1.1-0.9,1.9-2.101,1.9c-0.899,0-1.899,0-2.8,0
		c-1.1,0-2-0.8-2-2c0-0.3,0.1-0.4,0.5-0.4C29.2,30.9,30.2,30.9,31.2,30.9z"/>
	<path fill="#E39B25" d="M48.412,20.3c0.4,0,0.801,0,1.2,0c0.3,0,0.4,0.1,0.4,0.4c0,0.4,0,0.8,0,1.2c-0.2,0.7-0.7,1.1-1.4,1.1
		c-0.5,0-0.899,0-1.399,0c-0.301,0-0.4-0.1-0.4-0.4c0-0.6,0-1.3,0-1.9c0-0.3,0.1-0.4,0.4-0.4C47.612,20.3,48.013,20.3,48.412,20.3
		L48.412,20.3z"/>
	<path fill="#E39B25" d="M16.487,21.575c0,0.3,0,0.7,0,1c0,0.2-0.1,0.3-0.3,0.3c-0.4,0-0.7,0-1.1,0c-0.7,0-1.1-0.5-1.2-1.2
		c0-0.4,0-0.8,0-1.2c0-0.3,0.1-0.4,0.4-0.4c0.6,0,1.3,0,1.9,0c0.3,0,0.3,0.1,0.3,0.3C16.487,20.875,16.487,21.175,16.487,21.575
		L16.487,21.575z"/>
	<path fill="#E39B25" d="M32,34.5c0,0.2,0,0.4,0,0.6c0,0.4-0.3,0.7-0.7,0.7c-0.4,0-0.8-0.2-0.8-0.6c0-0.5,0-1,0-1.5
		c0-0.101,0.1-0.2,0.2-0.2c0.1,0,0.2,0,0.3,0C32,33.5,32,33.5,32,34.5z"/>
	<path fill="#E39B25" d="M30.4,56.1c1.6,0,3.2,0,4.9,0c0.9,0,0.9,0,0.9,0.9c0,1.5,0,2.9,0,4.4c0,0.6-0.101,0.699-0.7,0.699
		c-0.9,0-1.8,0-2.7,0c-2,0-3.9,0-5.9,0c-0.6,0-1.2,0-1.7,0s-0.6-0.1-0.6-0.6c0-1.6,0-3.2,0-4.8c0-0.5,0.1-0.601,0.6-0.601
		C26.9,56.1,28.7,56.1,30.4,56.1L30.4,56.1z"/>
	<path fill="#E39B25" d="M42.6,58.1c0,1,0,1-1,1c-0.8,0-0.8,0-0.8-0.699c0-0.2,0-0.5,0-0.7c0-0.101,0.101-0.4-0.2-0.4
		c-0.199,0-0.1,0.2-0.1,0.3c0,0.4,0,0.801,0,1.101c0,0.2-0.1,0.399-0.3,0.3c-0.2,0-0.5,0-0.7,0c-0.7,0-0.7,0-0.7-0.7
		c0-1.3,0-1.3,1.3-1.3c0.7,0,1.4,0,2.101,0c0.3,0,0.399,0.1,0.399,0.4C42.6,57.6,42.6,57.9,42.6,58.1z"/>
	<path fill="#E39B25" d="M44.7,58c0,1.2,0.1,1-1,1c-0.8,0-0.8,0-0.8-0.8c0-0.3,0-0.601,0-0.8C42.9,57.1,43,57,43.3,57s0.7,0,1,0
		s0.4,0.1,0.4,0.4C44.7,57.6,44.7,57.8,44.7,58z"/>
	<path fill="#E39B25" d="M42.9,60.3c0-1.1-0.101-0.899,1-0.899c0.899,0,0.8-0.101,0.8,0.8c0,1.2,0.1,1-1,1.1
		C42.8,61.3,42.9,61.4,42.9,60.3z"/>
	<path fill="#E39B25" d="M45,58L45,58c0-0.3-0.2-0.8,0.1-0.9c0.301-0.199,0.801-0.1,1.2,0c0.2,0,0.4,0.2,0.4,0.5
		c0.1,0.4,0,0.801,0,1.2c0,0.2-0.101,0.3-0.3,0.3c-0.4,0-0.7,0-1.101,0C45,59.1,44.9,59,45,58.7C45,58.5,45,58.2,45,58L45,58z"/>
	<path fill="#E39B25" d="M42.6,60.3c0,1.101,0.101,0.9-0.899,0.9c-0.9,0-0.8,0.1-0.8-0.8c0-1.101,0-1.101,1-1.101
		c0.899,0,0.699,0,0.699,0.7C42.6,60.1,42.6,60.2,42.6,60.3z"/>
	<path fill="#E39B25" d="M45,60.3c0-1,0-1,1-1c0.1,0,0.3,0,0.4,0c0.3,0,0.399,0.101,0.399,0.4c0,0.1,0,0.2,0,0.3
		c-0.1,1.3-0.1,1.3-1.3,1.3c-0.3,0-0.4-0.1-0.4-0.399C45,60.7,45,60.5,45,60.3z"/>
	<path fill="#E39B25" d="M40.5,60.3c0,1.101,0.2,1-1,1c-0.4,0-0.6-0.2-0.6-0.6c0-0.3,0-0.7,0-1c0-0.2,0.1-0.3,0.3-0.3
		c0.1,0,0.3,0,0.399,0C40.7,59.4,40.5,59.2,40.5,60.3z"/>
	<path fill="#E39B25" d="M18.5,59.1c0,0.5-0.4,0.9-0.9,0.9s-0.9-0.5-0.9-1s0.5-0.9,1-0.9C18.2,58.2,18.6,58.6,18.5,59.1z"/>
	<path fill="#E39B25" d="M19.8,59.1c0-0.5,0.4-0.899,0.9-0.899s0.9,0.399,0.9,0.899S21.2,60,20.7,60S19.8,59.6,19.8,59.1z"/>
	<path fill="none" d="M31.7,49.1c-5.7,0-11.4,0-17.1,0c-0.4,0-0.8,0-1.1-0.199c-0.9-0.5-1.3-1.5-0.8-2.5c0.7-1.4,1.5-2.9,2.2-4.301
		c0.4-0.899,1.1-1.3,2.1-1.3c9.9,0,19.8,0,29.7,0c0.899,0,1.5,0.4,1.899,1.2c0.7,1.4,1.5,2.9,2.2,4.3c0.7,1.4-0.1,2.8-1.7,2.8
		C43.2,49.1,37.5,49.1,31.7,49.1z M31.7,48.8L31.7,48.8c4.399,0,8.7,0,13.1,0c1.5,0,2.9,0,4.4,0c0.6,0,1.1-0.2,1.399-0.8
		c0.301-0.6,0.2-1.1-0.1-1.7c-0.7-1.399-1.4-2.8-2.1-4.2C48,41.3,47.4,41,46.6,41c-6.199,0-12.3,0-18.5,0c-3.7,0-7.5,0-11.2,0
		c-0.6,0-1.2,0.2-1.5,0.7c-0.8,1.6-1.7,3.2-2.5,4.899c-0.5,1,0.3,2.101,1.4,2.101C20.1,48.8,25.9,48.8,31.7,48.8z"/>
	<path fill="#E39B25" d="M31.522,48.489c-5.669,0-11.338,0-17.007,0c-1.173,0-1.857-1.055-1.368-2.015
		c0.782-1.536,1.563-3.167,2.443-4.702c0.293-0.576,0.879-0.673,1.466-0.673c3.617,0,7.331,0,10.947,0c6.06,0,12.022,0,18.081,0
		c0.881,0,1.467,0.289,1.761,1.057c0.683,1.343,1.368,2.687,2.052,4.03c0.293,0.48,0.392,1.056,0.098,1.631
		c-0.293,0.479-0.781,0.769-1.367,0.769c-1.467,0-2.836,0-4.302,0C40.025,48.489,35.724,48.489,31.522,48.489L31.522,48.489z"/>
</g>
</svg>
